<?xml version="1.0" standalone="no"?>
<!DOCTYPE svg PUBLIC "-//W3C//DTD SVG 20010904//EN"
 "http://www.w3.org/TR/2001/REC-SVG-20010904/DTD/svg10.dtd">
<svg version="1.0" xmlns="http://www.w3.org/2000/svg"
 width="1024.000000pt" height="1024.000000pt" viewBox="0 0 1024.000000 1024.000000"
 preserveAspectRatio="xMidYMid meet">

<g transform="translate(0.000000,1024.000000) scale(0.100000,-0.100000)"
fill="#000000" stroke="none">
<path d="M8125 9914 c-296 -44 -535 -182 -714 -412 -73 -95 -109 -174 -245
-534 -159 -419 -147 -388 -155 -388 -3 0 -70 64 -148 143 l-142 142 -3 316 -3
316 -29 37 c-53 70 4 67 -1020 64 -916 -3 -925 -3 -952 -24 -65 -48 -69 -60
-72 -240 l-3 -164 -42 29 c-100 68 -174 91 -293 91 -90 0 -180 -23 -253 -65
-23 -14 -47 -25 -51 -25 -5 0 -10 82 -12 183 l-3 182 -37 75 c-87 174 -238
270 -427 270 -135 0 -245 -46 -337 -142 -109 -114 -126 -164 -133 -395 l-6
-182 -46 30 c-193 125 -444 96 -609 -70 -118 -118 -167 -267 -142 -428 19
-119 65 -202 182 -325 l98 -104 -41 -23 c-57 -33 -134 -107 -164 -158 -14 -24
-28 -43 -32 -43 -3 0 -45 72 -91 160 -47 88 -89 160 -94 160 -7 0 -265 -136
-274 -145 -3 -3 16 -40 255 -480 72 -132 135 -250 141 -262 11 -19 8 -24 -23
-43 -30 -18 -37 -19 -53 -8 -10 7 -148 132 -306 278 -158 146 -291 266 -295
268 -8 3 -211 -216 -211 -228 0 -4 111 -111 248 -236 136 -126 271 -251 301
-279 l53 -52 -46 -94 c-91 -188 -114 -402 -63 -600 42 -163 87 -238 306 -510
l101 -124 0 -1337 0 -1338 160 0 160 0 2 1208 3 1209 130 -86 c124 -82 133
-86 185 -86 55 0 59 2 263 138 114 75 212 137 219 137 6 0 104 -62 217 -137
278 -186 244 -186 523 0 114 75 212 137 219 137 7 0 105 -62 218 -137 278
-186 244 -186 523 0 114 75 212 137 219 137 6 0 104 -62 217 -137 203 -136
208 -138 262 -138 54 0 59 2 261 138 114 75 212 137 220 137 7 0 82 -46 166
-102 l153 -103 0 -2437 0 -2438 -1760 0 -1760 0 0 -160 0 -160 2313 2 c1866 3
2320 6 2352 16 171 56 278 117 378 217 99 97 163 208 219 380 10 32 13 518 16
2525 2 2314 1 2488 -14 2523 l-17 37 151 403 c83 221 293 780 467 1242 174
462 328 885 342 940 23 87 27 119 27 255 0 128 -4 170 -23 240 -74 283 -228
508 -444 648 -168 108 -334 161 -527 167 -69 2 -138 1 -155 -1z m-4536 -332
c19 -9 44 -30 55 -45 20 -27 21 -44 26 -400 5 -336 7 -376 24 -409 21 -43 69
-76 120 -85 66 -10 98 11 253 167 124 124 155 150 191 160 83 21 161 -13 200
-90 26 -51 28 -96 8 -145 -9 -21 -134 -159 -302 -332 -177 -185 -294 -313
-305 -338 -17 -38 -19 -82 -19 -760 l0 -720 -51 -52 c-51 -54 -59 -60 -59 -44
0 8 -243 528 -300 641 -58 115 -171 242 -283 319 -105 72 -300 141 -398 141
-32 0 -42 7 -107 87 -57 68 -73 95 -78 131 -12 83 27 160 100 193 56 25 91 24
156 -7 104 -50 197 -27 239 60 24 49 26 84 7 129 -7 18 -111 132 -230 255
-118 123 -227 238 -241 257 -76 99 -13 258 112 281 74 14 108 -7 261 -162 81
-83 157 -151 177 -160 74 -30 149 -8 193 59 l27 40 5 378 c5 362 6 379 26 406
26 36 79 63 124 63 19 0 50 -8 69 -18z m4835 -7 c245 -66 443 -271 512 -530
26 -98 25 -284 -3 -380 -15 -53 -783 -2109 -983 -2632 l-31 -82 -114 -75 c-62
-42 -119 -76 -125 -76 -7 0 -105 62 -218 138 -278 185 -245 185 -524 -1 -114
-75 -212 -137 -218 -137 -14 0 -320 202 -320 211 0 20 1185 3160 1211 3210 98
183 291 323 509 369 62 13 233 5 304 -15z m-2024 -455 l0 -160 -720 0 -720 0
0 160 0 160 720 0 720 0 0 -160z m-465 -720 l-240 -240 -655 0 -655 0 240 240
240 240 655 0 655 0 -240 -240z m794 6 l164 -164 -56 -148 c-31 -82 -221 -588
-422 -1124 -395 -1053 -369 -995 -462 -1050 l-33 -19 0 1017 0 1017 317 317
c175 175 320 318 323 318 3 0 79 -74 169 -164z m-1130 -1528 c-1 -530 -5 -936
-9 -903 -68 514 -514 905 -1033 905 -95 0 -234 -23 -324 -54 l-73 -25 0 520 0
519 720 0 720 0 -1 -962z m-2794 378 c148 -39 280 -149 349 -291 22 -44 121
-254 221 -467 l182 -387 -11 -53 c-5 -29 -11 -55 -13 -57 -1 -2 -28 13 -59 34
-68 45 -125 55 -175 30 -19 -10 -118 -73 -220 -141 -103 -68 -193 -124 -199
-124 -19 0 -359 230 -375 253 -12 18 -11 22 8 37 12 9 103 79 202 155 99 76
182 140 184 142 9 6 -185 252 -196 248 -7 -2 -100 -72 -207 -155 -107 -82
-198 -150 -203 -150 -30 0 -131 176 -152 264 -15 61 -16 196 -2 256 41 180
191 344 365 400 74 23 227 26 301 6z m1893 -712 c219 -45 399 -181 496 -376
32 -64 42 -94 34 -97 -7 -2 -104 -64 -214 -137 -111 -74 -207 -134 -213 -134
-6 0 -105 62 -218 138 -204 134 -209 137 -263 137 -54 0 -59 -2 -261 -137
-113 -76 -210 -138 -214 -138 -12 0 2 156 20 225 26 102 91 219 167 300 177
189 421 270 666 219z m2721 -961 c202 -136 207 -138 261 -138 53 0 61 4 188
87 l132 88 0 -2269 c0 -1501 -3 -2286 -10 -2322 -35 -183 -196 -345 -374 -378
-36 -7 -197 -11 -398 -11 l-338 0 0 2438 0 2437 153 102 c83 56 159 102 166
102 8 1 107 -61 220 -136z"/>
<path d="M7833 8481 c-78 -25 -144 -49 -148 -53 -4 -3 2 -33 13 -65 11 -32 71
-213 132 -403 141 -438 158 -485 167 -484 24 4 279 87 286 94 5 4 -53 196
-128 426 -76 231 -144 442 -152 469 -8 28 -18 53 -21 56 -4 3 -71 -15 -149
-40z"/>
<path d="M7360 7360 c-123 -39 -145 -49 -144 -66 2 -19 291 -909 303 -931 4
-8 45 1 146 34 77 25 144 49 149 53 4 5 -17 84 -47 177 -31 92 -99 303 -152
468 -54 165 -100 303 -104 306 -3 3 -71 -15 -151 -41z"/>
<path d="M1280 3361 l0 -159 47 -7 c98 -15 185 -77 233 -167 30 -56 34 -72 38
-165 3 -57 2 -103 0 -103 -3 0 -43 18 -90 40 -474 222 -1033 -47 -1164 -560
-15 -60 -19 -110 -19 -245 1 -400 92 -773 285 -1170 115 -237 193 -329 351
-414 122 -65 204 -86 344 -85 143 0 204 14 352 84 l103 49 95 -45 c126 -60
210 -84 320 -91 271 -17 534 128 670 372 115 206 238 529 290 759 53 242 79
561 56 706 -52 334 -294 606 -616 691 -193 52 -410 28 -592 -65 -29 -14 -55
-26 -58 -26 -3 0 -5 42 -5 93 -1 217 -82 395 -238 523 -98 80 -260 143 -369
144 l-33 0 0 -159z m-18 -812 c108 -22 190 -72 312 -189 121 -116 147 -130
222 -115 28 5 62 31 150 115 122 117 204 167 312 189 272 56 543 -120 608
-396 31 -131 3 -444 -61 -699 -45 -177 -91 -298 -185 -490 -69 -142 -85 -167
-139 -216 -96 -89 -215 -124 -342 -99 -36 7 -118 40 -201 82 -98 48 -152 69
-178 69 -26 0 -79 -21 -176 -68 -159 -79 -221 -97 -308 -89 -93 8 -168 40
-237 105 -53 49 -70 75 -138 212 -159 321 -241 633 -258 980 -4 85 -2 149 6
192 57 286 333 475 613 417z"/>
</g>
</svg>
