<svg width="90" height="90" viewBox="0 0 90 90" fill="none" xmlns="http://www.w3.org/2000/svg">
<path d="M31.6156 69.0617C31.6156 69.3878 31.2407 69.6486 30.768 69.6486C30.2297 69.6973 29.8552 69.4368 29.8552 69.0617C29.8552 68.7358 30.2299 68.4746 30.703 68.4746C31.192 68.4259 31.6156 68.6866 31.6156 69.0617ZM26.5459 68.3278C26.4318 68.6542 26.7577 69.0288 27.2467 69.1265C27.6705 69.2897 28.1597 69.1265 28.2575 68.8008C28.3556 68.4746 28.0457 68.0998 27.5566 67.9528C27.1327 67.8391 26.66 68.0019 26.5459 68.3278ZM33.7513 68.0508C33.2787 68.165 32.9526 68.4746 33.0013 68.8495C33.0503 69.1754 33.4741 69.3879 33.9633 69.2737C34.4362 69.1594 34.7621 68.8495 34.7132 68.5236C34.6642 68.2137 34.2242 68.0019 33.7513 68.0508ZM44.4782 5.58057C21.8668 5.58057 4.57043 22.7467 4.57043 45.3583C4.57043 63.4376 15.9491 78.9082 32.2027 84.3534C34.2894 84.7284 35.023 83.4404 35.023 82.3806C35.023 81.3699 34.9743 75.7943 34.9743 72.3713C34.9743 72.3713 23.5624 74.8166 21.1659 67.5129C21.1659 67.5129 19.3076 62.7689 16.6339 61.5462C16.6339 61.5462 12.9007 58.9868 16.8948 59.0358C16.8948 59.0358 20.9543 59.3621 23.1876 63.2419C26.7577 69.5347 32.7406 67.7252 35.0716 66.6491C35.4468 64.0407 36.5064 62.2312 37.6802 61.1552C28.5672 60.1445 19.3728 58.8238 19.3728 43.1413C19.3728 38.6582 20.6117 36.4086 23.2203 33.5393C22.7965 32.4797 21.4106 28.1108 23.6441 22.47C27.0513 21.4104 34.8923 26.8717 34.8923 26.8717C38.1531 25.9587 41.658 25.486 45.1302 25.486C48.6028 25.486 52.1077 25.9587 55.3679 26.8717C55.3679 26.8717 63.2096 21.3942 66.6166 22.47C68.8499 28.1268 67.4643 32.4797 67.0406 33.5393C69.6492 36.4247 71.2464 38.6742 71.2464 43.1413C71.2464 58.873 61.6443 60.1281 52.5316 61.1552C54.0314 62.4428 55.3028 64.8885 55.3028 68.7194C55.3028 74.2131 55.2541 81.0115 55.2541 82.3479C55.2541 83.4075 56.004 84.6955 58.0744 84.3207C74.3767 78.9084 85.4295 63.4376 85.4295 45.3585C85.4295 22.7467 67.0895 5.58057 44.4782 5.58057ZM20.4162 61.8072C20.2042 61.9701 20.2531 62.3452 20.53 62.6544C20.7908 62.9155 21.1658 63.0294 21.3778 62.8179C21.5896 62.6545 21.5407 62.2799 21.2637 61.9701C21.003 61.7093 20.6282 61.5952 20.4162 61.8072ZM18.6554 60.4867C18.5415 60.6985 18.7043 60.9592 19.0306 61.1223C19.2912 61.2856 19.6175 61.2364 19.7316 61.0083C19.8455 60.7964 19.6827 60.5358 19.3566 60.3725C19.0306 60.2745 18.7693 60.3236 18.6554 60.4867ZM23.9375 66.29C23.6768 66.5019 23.7745 66.9911 24.1493 67.3007C24.5242 67.6758 24.9969 67.7249 25.2089 67.4636C25.4207 67.252 25.323 66.7628 24.9969 66.4533C24.6383 66.0783 24.1493 66.0293 23.9375 66.29ZM22.0789 63.8939C21.8181 64.0567 21.8181 64.4805 22.0789 64.8554C22.3398 65.2305 22.78 65.3935 22.9918 65.2305C23.2525 65.0185 23.2525 64.5947 22.9918 64.2198C22.7636 63.845 22.34 63.6817 22.0789 63.8939Z" fill="black"/>
</svg>
