<svg width="247" height="247" viewBox="0 0 247 247" fill="none" xmlns="http://www.w3.org/2000/svg">
<path d="M195.984 7.86346C188.844 8.9248 183.079 12.2535 178.761 17.8014C177.001 20.0929 176.132 21.9984 172.852 30.682C169.016 40.7888 169.306 40.041 169.113 40.041C169.041 40.041 167.424 38.4973 165.543 36.5917L162.118 33.1665L162.046 25.5442L161.973 17.922L161.274 17.0295C159.995 15.341 161.37 15.4134 136.67 15.4857C114.575 15.5581 114.358 15.5581 113.707 16.0646C112.139 17.2225 112.042 17.5119 111.97 21.8537L111.898 25.8096L110.885 25.11C108.473 23.4698 106.688 22.915 103.817 22.915C101.646 22.915 99.4754 23.4698 97.7145 24.4829C97.1598 24.8206 96.5809 25.0859 96.4844 25.0859C96.3638 25.0859 96.2432 23.108 96.1949 20.6718L96.1226 16.2817L95.2301 14.4727C93.1315 10.2756 89.4893 7.95996 84.9304 7.95996C81.674 7.95996 79.0207 9.06952 76.8016 11.3851C74.1724 14.1349 73.7623 15.341 73.5935 20.913L73.4487 25.303L72.3392 24.5794C67.6838 21.5643 61.6294 22.2638 57.6494 26.2679C54.8031 29.1142 53.6212 32.7082 54.2242 36.5917C54.6825 39.4621 55.7921 41.4642 58.6143 44.431L60.9781 46.9396L59.9892 47.4944C58.6143 48.2904 56.7569 50.0754 56.0333 51.3056C55.6956 51.8845 55.3579 52.3428 55.2614 52.3428C55.1891 52.3428 54.176 50.606 53.0664 48.4834C51.9327 46.3607 50.9196 44.624 50.799 44.624C50.6302 44.624 44.4069 47.9045 44.1898 48.1216C44.1175 48.1939 44.5758 49.0864 50.3407 59.6997C52.0774 62.8837 53.5971 65.73 53.7418 66.0194C54.0071 66.4777 53.9348 66.5983 53.187 67.0566C52.4634 67.4908 52.2945 67.5149 51.9086 67.2496C51.6674 67.0807 48.3387 64.0656 44.5275 60.5439C40.7164 57.0223 37.5083 54.1277 37.4118 54.0795C37.2188 54.0071 32.3223 59.2896 32.3223 59.5791C32.3223 59.6756 34.9997 62.2565 38.3043 65.2717C41.5848 68.3109 44.8411 71.3261 45.5647 72.0015L46.8432 73.2558L45.7336 75.5231C43.5386 80.0579 42.9838 85.2198 44.214 89.9958C45.227 93.9275 46.3125 95.7366 51.595 102.298L54.0312 105.289V137.538V169.812H57.8906H61.75L61.7982 140.674L61.8706 111.512L65.0063 113.586C67.9974 115.564 68.2145 115.661 69.4688 115.661C70.7954 115.661 70.8919 115.612 75.8126 112.332C78.5624 110.523 80.9263 109.027 81.0951 109.027C81.2398 109.027 83.6037 110.523 86.3294 112.332C93.0351 116.818 92.2149 116.818 98.9447 112.332C101.695 110.523 104.058 109.027 104.227 109.027C104.396 109.027 106.76 110.523 109.486 112.332C116.191 116.818 115.371 116.818 122.101 112.332C124.851 110.523 127.215 109.027 127.383 109.027C127.528 109.027 129.892 110.523 132.618 112.332C137.514 115.612 137.635 115.661 138.937 115.661C140.24 115.661 140.361 115.612 145.233 112.332C147.983 110.523 150.347 109.027 150.54 109.027C150.709 109.027 152.518 110.137 154.544 111.488L158.234 113.972V172.755V231.562H115.781H73.3281V235.422V239.281L129.12 239.233C174.13 239.161 185.081 239.088 185.853 238.847C189.978 237.496 192.559 236.025 194.971 233.613C197.359 231.273 198.903 228.596 200.253 224.447C200.495 223.675 200.567 211.952 200.639 163.541C200.687 107.725 200.663 103.528 200.302 102.683L199.891 101.791L203.534 92.0702C205.536 86.7394 210.601 73.2558 214.798 62.1118C218.995 50.9679 222.71 40.7646 223.048 39.438C223.603 37.3394 223.699 36.5676 223.699 33.2871C223.699 30.1996 223.603 29.1865 223.144 27.498C221.359 20.6718 217.645 15.2445 212.434 11.8676C208.382 9.2625 204.378 7.98407 199.723 7.83936C198.058 7.79111 196.394 7.81523 195.984 7.86346ZM86.5706 15.8717C87.0289 16.0888 87.6319 16.5953 87.8973 16.9571C88.3797 17.6084 88.4038 18.0184 88.5244 26.6056C88.645 34.7103 88.6933 35.6751 89.1033 36.4711C89.6099 37.5083 90.7677 38.3043 91.9978 38.5214C93.5898 38.7626 94.3617 38.256 98.1005 34.4932C101.091 31.5021 101.839 30.875 102.708 30.6338C104.71 30.1272 106.591 30.9474 107.532 32.8047C108.159 34.0349 108.207 35.1203 107.725 36.3022C107.508 36.8088 104.493 40.1375 100.44 44.3104C96.1708 48.7728 93.3486 51.8604 93.0833 52.4634C92.6732 53.38 92.625 54.4413 92.625 70.7954V88.1626L91.3948 89.4169C90.1646 90.7194 89.9717 90.8642 89.9717 90.4782C89.9717 90.2852 84.1103 77.7423 82.7353 75.0166C81.3363 72.2427 78.6106 69.1793 75.9091 67.322C73.3764 65.5853 68.6728 63.9209 66.3089 63.9209C65.537 63.9209 65.2958 63.752 63.7279 61.8224C62.353 60.1821 61.9671 59.5309 61.8465 58.6625C61.557 56.6604 62.4978 54.8031 64.2586 54.0071C65.6094 53.4041 66.4536 53.4282 68.0215 54.176C70.5301 55.382 72.7733 54.8272 73.7864 52.7287C74.3653 51.5468 74.4136 50.7025 73.9553 49.6171C73.7864 49.1829 71.2778 46.4331 68.4074 43.4662C65.5611 40.4993 62.9319 37.7254 62.5942 37.2671C60.761 34.8791 62.2807 31.0438 65.2958 30.4891C67.0808 30.1514 67.9009 30.6579 71.5914 34.3967C73.5452 36.3987 75.3784 38.039 75.8608 38.256C77.6458 38.9797 79.4549 38.449 80.5162 36.8329L81.1675 35.8681L81.2881 26.7503C81.4087 18.0184 81.4328 17.6084 81.9152 16.9571C82.5424 16.0888 83.8208 15.4375 84.9062 15.4375C85.3645 15.4375 86.1123 15.6305 86.5706 15.8717ZM203.196 16.0405C209.106 17.6325 213.882 22.5773 215.546 28.8247C216.173 31.1886 216.149 35.6751 215.474 37.9907C215.112 39.2691 196.587 88.8621 191.763 101.477L191.015 103.455L188.265 105.264C186.77 106.278 185.395 107.098 185.25 107.098C185.081 107.098 182.717 105.602 179.992 103.769C173.286 99.3065 174.082 99.3065 167.352 103.793C164.602 105.602 162.238 107.098 162.094 107.098C161.756 107.098 154.375 102.225 154.375 102.008C154.375 101.526 182.958 25.7854 183.586 24.5794C185.95 20.1652 190.605 16.7883 195.863 15.6787C197.359 15.3651 201.483 15.5581 203.196 16.0405ZM154.375 27.0156V30.875H137.008H119.641V27.0156V23.1562H137.008H154.375V27.0156ZM143.159 44.3828L137.37 50.1719H121.57H105.771L111.56 44.3828L117.349 38.5938H133.148H148.948L143.159 44.3828ZM162.311 44.2381L166.267 48.1939L164.916 51.7639C164.168 53.7418 159.585 65.9471 154.737 78.876C145.209 104.275 145.836 102.876 143.593 104.203L142.797 104.661V80.1303V55.5991L150.443 47.9527C154.664 43.7315 158.162 40.2822 158.234 40.2822C158.307 40.2822 160.14 42.0672 162.311 44.2381ZM135.054 81.0951C135.03 93.8793 134.933 103.672 134.837 102.876C133.197 90.4782 122.439 81.0469 109.92 81.0469C107.628 81.0469 104.275 81.6017 102.105 82.3494L100.344 82.9524V70.4095V57.8906H117.711H135.078L135.054 81.0951ZM67.6597 71.9773C71.2296 72.9181 74.4136 75.5714 76.0779 78.9966C76.6086 80.0579 78.9966 85.1233 81.4087 90.2611L85.7987 99.596L85.5334 100.874C85.4128 101.574 85.2681 102.201 85.2198 102.249C85.1957 102.298 84.5444 101.936 83.7967 101.429C82.1564 100.344 80.7815 100.103 79.5755 100.706C79.1172 100.947 76.7292 102.466 74.2688 104.107C71.7844 105.747 69.6135 107.098 69.4688 107.098C69.0104 107.098 60.8093 101.55 60.4233 100.995C60.1339 100.561 60.158 100.464 60.6163 100.103C60.9058 99.8855 63.1008 98.197 65.4888 96.3638C67.8768 94.5306 69.8788 92.9868 69.927 92.9386C70.1441 92.7938 65.4646 86.86 65.1993 86.9565C65.0305 87.0048 62.7872 88.6933 60.2062 90.6953C57.6253 92.6732 55.4303 94.3135 55.3097 94.3135C54.586 94.3135 52.1498 90.0682 51.6433 87.9455C51.2814 86.4741 51.2573 83.2178 51.595 81.7705C52.584 77.4287 56.2021 73.4728 60.3992 72.1221C62.1842 71.5673 65.8747 71.4949 67.6597 71.9773ZM113.321 89.1516C118.603 90.237 122.945 93.5175 125.285 98.2211C126.057 99.7648 126.298 100.488 126.105 100.561C125.936 100.609 123.596 102.105 120.943 103.865C118.266 105.65 115.95 107.098 115.805 107.098C115.661 107.098 113.273 105.602 110.547 103.769C105.626 100.537 105.506 100.464 104.203 100.464C102.901 100.464 102.78 100.513 97.9075 103.769C95.1818 105.602 92.8421 107.098 92.7456 107.098C92.4562 107.098 92.7938 103.335 93.228 101.67C93.8552 99.2101 95.423 96.3879 97.2562 94.4341C101.526 89.8752 107.411 87.9214 113.321 89.1516ZM178.954 112.332C183.827 115.612 183.947 115.661 185.25 115.661C186.528 115.661 186.721 115.564 189.785 113.562L192.969 111.439V166.17C192.969 202.376 192.896 221.311 192.728 222.179C191.883 226.594 188 230.501 183.706 231.297C182.838 231.466 178.954 231.562 174.106 231.562H165.953V172.755V113.972L169.644 111.512C171.646 110.161 173.479 109.051 173.648 109.051C173.841 109.027 176.229 110.523 178.954 112.332Z" fill="black"/>
<path d="M188.94 42.4291C187.059 43.0321 185.467 43.611 185.371 43.7075C185.274 43.7799 185.419 44.5035 185.684 45.2754C185.949 46.0472 187.397 50.4132 188.868 54.9962C192.269 65.5612 192.679 66.6949 192.896 66.6708C193.475 66.5743 199.626 64.5722 199.795 64.4034C199.916 64.3069 198.517 59.6757 196.707 54.1278C194.874 48.5558 193.234 43.4663 193.041 42.815C192.848 42.1396 192.607 41.5366 192.535 41.4642C192.438 41.3919 190.822 41.826 188.94 42.4291Z" fill="black"/>
<path d="M177.531 69.4687C174.564 70.4094 174.034 70.6506 174.058 71.0607C174.106 71.519 181.077 92.9868 181.367 93.5174C181.463 93.7104 182.452 93.4933 184.888 92.6973C186.746 92.0943 188.362 91.5154 188.482 91.4189C188.579 91.2983 188.072 89.3927 187.349 87.1495C186.601 84.9303 184.961 79.8408 183.682 75.8608C182.38 71.8808 181.27 68.5521 181.174 68.4797C181.101 68.4074 179.461 68.8416 177.531 69.4687Z" fill="black"/>
<path d="M30.875 165.929V169.764L32.0087 169.933C34.3726 170.295 36.4711 171.79 37.6289 173.961C38.3525 175.312 38.449 175.698 38.5455 177.941C38.6179 179.316 38.5937 180.426 38.5455 180.426C38.4731 180.426 37.5083 179.992 36.3746 179.461C24.9412 174.106 11.4575 180.595 8.29766 192.969C7.93584 194.416 7.83936 195.622 7.83936 198.878C7.86348 208.527 10.0585 217.524 14.7139 227.1C17.4878 232.817 19.3692 235.036 23.1804 237.086C26.1231 238.654 28.1011 239.161 31.478 239.136C34.9273 239.136 36.3987 238.799 39.9687 237.11L42.4531 235.928L44.7446 237.014C47.7839 238.461 49.8101 239.04 52.4634 239.209C59.0002 239.619 65.344 236.121 68.6245 230.236C71.3984 225.267 74.3653 217.476 75.6196 211.928C76.898 206.091 77.5252 198.396 76.9704 194.898C75.7161 186.842 69.8788 180.281 62.1118 178.231C57.4564 176.976 52.2222 177.555 47.8321 179.799C47.1326 180.136 46.5055 180.426 46.4331 180.426C46.3607 180.426 46.3125 179.413 46.3125 178.182C46.2884 172.948 44.3346 168.655 40.5717 165.567C38.2078 163.637 34.3002 162.118 31.671 162.094H30.875V165.929ZM30.4408 185.515C33.0459 186.046 35.0238 187.252 37.9666 190.074C40.8853 192.872 41.5124 193.21 43.3215 192.848C43.9969 192.727 44.817 192.1 46.9396 190.074C49.8824 187.252 51.8603 186.046 54.4654 185.515C61.0264 184.165 67.5632 188.41 69.1311 195.067C69.8788 198.227 69.2034 205.777 67.6597 211.928C66.5742 216.197 65.4646 219.116 63.1973 223.747C61.5329 227.172 61.147 227.775 59.8444 228.957C57.5288 231.104 54.6584 231.948 51.595 231.345C50.7267 231.177 48.7487 230.381 46.7467 229.367C44.3828 228.21 43.0803 227.703 42.4531 227.703C41.826 227.703 40.5476 228.21 38.2078 229.343C34.3726 231.249 32.8771 231.683 30.7785 231.49C28.5353 231.297 26.7262 230.525 25.0618 228.957C23.7834 227.775 23.3733 227.148 21.7331 223.844C17.8979 216.101 15.9199 208.575 15.5099 200.205C15.4134 198.155 15.4616 196.611 15.6546 195.574C17.0295 188.675 23.6869 184.116 30.4408 185.515Z" fill="black"/>
</svg>
