<svg width="87" height="87" viewBox="0 0 87 87" fill="none" xmlns="http://www.w3.org/2000/svg">
<path d="M67.1178 82.0056C66.0248 82.0056 64.8259 81.6467 63.529 80.9317L34.1584 59.2469C33.8294 59.005 33.6282 58.6271 33.6064 58.2193C33.5874 57.8114 33.7505 57.4172 34.055 57.1426L68.8442 25.8362C69.4015 25.3333 70.2606 25.3768 70.7636 25.9368C71.2666 26.4942 71.2204 27.3533 70.663 27.8563L37.1136 58.0507L64.9917 78.6479C65.7285 79.0422 66.9737 79.5424 67.86 79.1319C68.7626 78.7186 69.2085 77.4 69.426 76.3669L81.3205 20.3144C81.7827 18.463 81.5598 16.9731 80.736 16.288C80.1079 15.766 79.1727 15.7279 78.1613 16.1847L8.24595 43.1492C6.10085 44.0111 5.4266 44.8974 5.43748 45.191C5.44564 45.384 5.90782 45.9169 7.28623 46.3383L24.6183 51.7486L43.6468 39.7426C44.283 39.3457 45.1204 39.5333 45.52 40.1668C45.9197 40.8002 45.7321 41.6403 45.0959 42.04L25.5372 54.3804C25.2001 54.5924 24.7841 54.6468 24.4062 54.5299L6.4842 48.9347C3.30326 47.9614 2.75951 46.2432 2.72145 45.3052C2.66707 44.0192 3.40929 42.1596 7.2536 40.6208L77.1119 13.6834C79.0069 12.8189 81.0405 13.0037 82.4787 14.2027C84.1453 15.592 84.689 18.0443 83.9713 20.9289L72.0876 76.9297C71.5874 79.3167 70.5488 80.8909 68.9964 81.6032C68.4119 81.8724 67.7866 82.0056 67.1178 82.0056Z" fill="#263238"/>
<path d="M67.1178 82.0056C66.0248 82.0056 64.8259 81.6467 63.529 80.9317L45.259 67.4494C44.6554 67.0035 44.5249 66.1498 44.9735 65.549C45.4194 64.9454 46.2731 64.8149 46.8739 65.2635L64.9917 78.6479C65.7285 79.0422 66.9737 79.5424 67.86 79.1319C68.7626 78.7186 69.2085 77.4 69.426 76.3669L81.3205 20.3144C81.7827 18.463 81.5598 16.9731 80.736 16.288C80.1079 15.766 79.1727 15.7279 78.1613 16.1847L8.24595 43.1492C6.10085 44.0111 5.4266 44.8974 5.43748 45.191C5.44564 45.384 5.90782 45.9169 7.28623 46.3383L25.2137 51.9335C25.6432 52.0667 25.9776 52.4066 26.1109 52.8361L32.2743 73.1207C32.4401 73.5748 32.5679 74.0261 32.6794 74.4176C32.7664 74.7275 32.8751 75.1136 32.9485 75.2278C32.9376 75.2142 33.1551 75.2794 33.7342 75.2821C34.9495 75.2821 35.4117 74.8281 36.3361 73.9282L40.8492 69.5401C41.3875 69.0127 42.2466 69.029 42.7714 69.5673C43.2934 70.1056 43.2825 70.9675 42.7442 71.4895L38.3072 75.7987C37.2142 76.8672 36.056 77.9982 33.7342 77.9982C31.0699 77.9982 30.5315 76.8182 30.0612 75.1543C29.966 74.8172 29.8573 74.4284 29.6942 73.9798L23.7184 54.3151L6.4842 48.9347C3.30326 47.9614 2.75951 46.2432 2.72145 45.3052C2.66707 44.0192 3.40929 42.1596 7.2536 40.6208L77.1119 13.6834C79.0069 12.8189 81.0405 13.0037 82.4787 14.2027C84.1453 15.592 84.689 18.0443 83.9713 20.9289L72.0876 76.9297C71.5874 79.3167 70.5488 80.8909 68.9964 81.6032C68.4119 81.8724 67.7866 82.0056 67.1178 82.0056Z" fill="#263238"/>
<path d="M50.2969 38.0625C50.2969 38.8102 49.6852 39.4219 48.9375 39.4219C48.1898 39.4219 47.5781 38.8102 47.5781 38.0625C47.5781 37.3148 48.1898 36.7031 48.9375 36.7031C49.6852 36.7031 50.2969 37.3148 50.2969 38.0625Z" fill="#263238"/>
</svg>
