<svg width="90" height="63" viewBox="0 0 90 63" fill="none" xmlns="http://www.w3.org/2000/svg">
<path d="M88.9807 51.4859C84.9131 44.6344 80.1529 38.2831 74.786 32.5465C74.6884 32.416 74.6353 32.2539 74.6353 32.0868C74.6353 31.9197 74.6884 31.7575 74.786 31.6271C79.4043 24.8824 83.4856 17.7352 86.9873 10.2605C87.4938 9.19089 87.7346 7.99982 87.6864 6.80185C87.6383 5.60388 87.3028 4.43933 86.7123 3.42023C86.1737 2.38444 85.3864 1.52131 84.4318 0.920053C83.4771 0.318792 82.3897 0.00120137 81.2819 0.000103312H70.971C69.6626 0.0272688 68.3886 0.453518 67.2988 1.22875C66.209 2.00398 65.3486 3.09598 64.8188 4.37639C61.8239 11.4636 58.2348 18.2458 54.0955 24.6397V6.6197C54.1001 5.74904 53.9432 4.88606 53.6339 4.08073C53.3246 3.2754 52.8691 2.54373 52.2937 1.92806C51.7183 1.3124 51.0345 0.824994 50.2818 0.494056C49.5292 0.163117 48.7227 -0.00477446 47.909 0.000103312H32.8551C31.9787 0.0146827 31.1227 0.285108 30.3795 0.782186C29.6362 1.27926 29.034 1.98411 28.6378 2.82064C28.2416 3.65717 28.0665 4.59361 28.1313 5.52886C28.1961 6.46412 28.4984 7.36266 29.0057 8.1275L30.3804 10.1869C31.1179 11.3201 31.5136 12.6675 31.5146 14.0484V28.1702C26.9776 20.9884 23.3704 13.1824 20.7913 4.9648C20.3262 3.51675 19.4504 2.26009 18.2859 1.37011C17.1215 0.480133 15.7264 0.00119673 14.2954 0.000103312H5.87486C4.98016 0.01155 4.09941 0.238908 3.29826 0.665231C2.4971 1.09155 1.79619 1.70585 1.24778 2.46233C0.699361 3.21882 0.317576 4.09798 0.130877 5.03431C-0.0558214 5.97063 -0.0426203 6.93997 0.169498 7.87007C4.8094 28.9425 14.536 46.4108 26.8747 55.6783C27.6142 56.2404 28.5314 56.4669 29.4263 56.3084C30.3212 56.15 31.1213 55.6194 31.6521 54.8324C31.9176 54.4394 32.1078 53.9941 32.2118 53.5221C32.3157 53.05 32.3314 52.5607 32.258 52.0822C32.1845 51.6037 32.0233 51.1454 31.7836 50.7338C31.544 50.3222 31.2306 49.9654 30.8616 49.6839C20.0695 41.5932 11.4771 26.1843 7.11217 7.35521H14.3298C17.4926 17.6373 22.2569 27.2733 28.4214 35.8563C29.1338 36.8303 30.1151 37.5394 31.2257 37.8827C32.3363 38.226 33.5197 38.1861 34.6079 37.7686C35.7244 37.3521 36.6903 36.5705 37.3687 35.5343C38.0472 34.4981 38.404 33.2599 38.3886 31.9948V14.0484C38.3959 11.7106 37.8522 9.40852 36.8076 7.35521H47.1185V27.3243C47.1062 28.7532 47.5336 30.1467 48.3349 31.2899C49.1362 32.433 50.2667 33.2623 51.5522 33.6497C52.7993 34.0938 54.1484 34.0859 55.391 33.6272C56.6335 33.1686 57.7002 32.2847 58.4261 31.1122C63.308 23.66 67.4762 15.7009 70.8679 7.35521H80.4914C77.2155 14.2472 73.4345 20.8507 69.1838 27.1037C68.1119 28.6379 67.5916 30.5335 67.7178 32.4443C67.844 34.355 68.6083 36.1535 69.8712 37.5112C74.884 42.9162 79.3961 48.8279 83.3441 55.1634H71.8303C68.2783 48.8722 63.5085 43.4676 57.8418 39.3132C56.9916 38.6466 55.9838 38.2485 54.9327 38.164C53.8817 38.0795 52.8296 38.312 51.8959 38.8351C50.9357 39.3608 50.1314 40.1622 49.5729 41.1495C49.0145 42.1368 48.7239 43.271 48.7338 44.425V53.1775C48.7526 53.6885 48.583 54.1869 48.2615 54.5652C47.9401 54.9436 47.4925 55.1716 47.0154 55.2002H44.0596C43.148 55.2002 42.2738 55.5877 41.6293 56.2773C40.9847 56.967 40.6226 57.9024 40.6226 58.8778C40.6226 59.8531 40.9847 60.7885 41.6293 61.4782C42.2738 62.1679 43.148 62.5553 44.0596 62.5553H47.0154C48.1557 62.5457 49.283 62.2953 50.3327 61.8183C51.3823 61.3414 52.3336 60.6473 53.1319 59.776C53.9303 58.9047 54.5599 57.8733 54.9848 56.741C55.4097 55.6086 55.6214 54.3976 55.6078 53.1775V46.6683C59.7422 49.9958 63.2423 54.1404 65.9187 58.8778C66.5096 59.9735 67.3546 60.8876 68.3721 61.5318C69.3896 62.176 70.5451 62.5286 71.7271 62.5553H83.3441C84.532 62.5585 85.6986 62.2185 86.721 61.5712C87.7433 60.9239 88.5834 59.9934 89.1526 58.8778C89.7364 57.7391 90.0281 56.4554 89.9979 55.157C89.9677 53.8587 89.6167 52.592 88.9807 51.4859Z" fill="black"/>
</svg>
